<svg xmlns="http://www.w3.org/2000/svg" xmlns:xlink="http://www.w3.org/1999/xlink" width="600" height="400" viewBox="0 0 2400 1600">
<defs>
  <clipPath id="clip700">
    <rect x="0" y="0" width="2400" height="1600"></rect>
  </clipPath>
</defs>
<path clip-path="url(#clip700)" d="
M0 1600 L2400 1600 L2400 0 L0 0  Z
  " fill="#ffffff" fill-rule="evenodd" fill-opacity="1"></path>
<defs>
  <clipPath id="clip701">
    <rect x="480" y="0" width="1681" height="1600"></rect>
  </clipPath>
</defs>
<path clip-path="url(#clip700)" d="
M247.459 1423.18 L2352.76 1423.18 L2352.76 183.952 L247.459 183.952  Z
  " fill="#ffffff" fill-rule="evenodd" fill-opacity="1"></path>
<defs>
  <clipPath id="clip702">
    <rect x="247" y="183" width="2106" height="1240"></rect>
  </clipPath>
</defs>
<polyline clip-path="url(#clip702)" style="stroke:#000000; stroke-linecap:round; stroke-linejoin:round; stroke-width:2; stroke-opacity:0.1; fill:none" points="
  307.043,1423.18 307.043,183.952 
  "></polyline>
<polyline clip-path="url(#clip702)" style="stroke:#000000; stroke-linecap:round; stroke-linejoin:round; stroke-width:2; stroke-opacity:0.1; fill:none" points="
  748.405,1423.18 748.405,183.952 
  "></polyline>
<polyline clip-path="url(#clip702)" style="stroke:#000000; stroke-linecap:round; stroke-linejoin:round; stroke-width:2; stroke-opacity:0.1; fill:none" points="
  1189.77,1423.18 1189.77,183.952 
  "></polyline>
<polyline clip-path="url(#clip702)" style="stroke:#000000; stroke-linecap:round; stroke-linejoin:round; stroke-width:2; stroke-opacity:0.1; fill:none" points="
  1631.13,1423.18 1631.13,183.952 
  "></polyline>
<polyline clip-path="url(#clip702)" style="stroke:#000000; stroke-linecap:round; stroke-linejoin:round; stroke-width:2; stroke-opacity:0.1; fill:none" points="
  2072.49,1423.18 2072.49,183.952 
  "></polyline>
<polyline clip-path="url(#clip700)" style="stroke:#000000; stroke-linecap:round; stroke-linejoin:round; stroke-width:4; stroke-opacity:1; fill:none" points="
  247.459,1423.18 2352.76,1423.18 
  "></polyline>
<polyline clip-path="url(#clip700)" style="stroke:#000000; stroke-linecap:round; stroke-linejoin:round; stroke-width:4; stroke-opacity:1; fill:none" points="
  307.043,1423.18 307.043,1404.28 
  "></polyline>
<polyline clip-path="url(#clip700)" style="stroke:#000000; stroke-linecap:round; stroke-linejoin:round; stroke-width:4; stroke-opacity:1; fill:none" points="
  748.405,1423.18 748.405,1404.28 
  "></polyline>
<polyline clip-path="url(#clip700)" style="stroke:#000000; stroke-linecap:round; stroke-linejoin:round; stroke-width:4; stroke-opacity:1; fill:none" points="
  1189.77,1423.18 1189.77,1404.28 
  "></polyline>
<polyline clip-path="url(#clip700)" style="stroke:#000000; stroke-linecap:round; stroke-linejoin:round; stroke-width:4; stroke-opacity:1; fill:none" points="
  1631.13,1423.18 1631.13,1404.28 
  "></polyline>
<polyline clip-path="url(#clip700)" style="stroke:#000000; stroke-linecap:round; stroke-linejoin:round; stroke-width:4; stroke-opacity:1; fill:none" points="
  2072.49,1423.18 2072.49,1404.28 
  "></polyline>
<path clip-path="url(#clip700)" d="M251.568 1481.64 L259.207 1481.64 L259.207 1455.28 L250.897 1456.95 L250.897 1452.69 L259.161 1451.02 L263.837 1451.02 L263.837 1481.64 L271.476 1481.64 L271.476 1485.58 L251.568 1485.58 L251.568 1481.64 Z" fill="#000000" fill-rule="evenodd" fill-opacity="1"></path><path clip-path="url(#clip700)" d="M281.059 1484.86 L281.059 1480.6 Q282.818 1481.44 284.624 1481.88 Q286.429 1482.32 288.165 1482.32 Q292.795 1482.32 295.226 1479.21 Q297.679 1476.09 298.026 1469.75 Q296.684 1471.74 294.624 1472.8 Q292.564 1473.87 290.064 1473.87 Q284.878 1473.87 281.846 1470.74 Q278.837 1467.59 278.837 1462.15 Q278.837 1456.83 281.985 1453.61 Q285.133 1450.39 290.364 1450.39 Q296.36 1450.39 299.508 1455 Q302.679 1459.58 302.679 1468.33 Q302.679 1476.51 298.79 1481.39 Q294.925 1486.25 288.374 1486.25 Q286.614 1486.25 284.809 1485.9 Q283.003 1485.56 281.059 1484.86 M290.364 1470.21 Q293.513 1470.21 295.341 1468.06 Q297.193 1465.9 297.193 1462.15 Q297.193 1458.43 295.341 1456.27 Q293.513 1454.1 290.364 1454.1 Q287.216 1454.1 285.364 1456.27 Q283.536 1458.43 283.536 1462.15 Q283.536 1465.9 285.364 1468.06 Q287.216 1470.21 290.364 1470.21 Z" fill="#000000" fill-rule="evenodd" fill-opacity="1"></path><path clip-path="url(#clip700)" d="M323.929 1455.09 L312.124 1473.54 L323.929 1473.54 L323.929 1455.09 M322.702 1451.02 L328.582 1451.02 L328.582 1473.54 L333.512 1473.54 L333.512 1477.43 L328.582 1477.43 L328.582 1485.58 L323.929 1485.58 L323.929 1477.43 L308.327 1477.43 L308.327 1472.92 L322.702 1451.02 Z" fill="#000000" fill-rule="evenodd" fill-opacity="1"></path><path clip-path="url(#clip700)" d="M351.244 1454.1 Q347.633 1454.1 345.804 1457.66 Q343.998 1461.2 343.998 1468.33 Q343.998 1475.44 345.804 1479.01 Q347.633 1482.55 351.244 1482.55 Q354.878 1482.55 356.684 1479.01 Q358.512 1475.44 358.512 1468.33 Q358.512 1461.2 356.684 1457.66 Q354.878 1454.1 351.244 1454.1 M351.244 1450.39 Q357.054 1450.39 360.109 1455 Q363.188 1459.58 363.188 1468.33 Q363.188 1477.06 360.109 1481.67 Q357.054 1486.25 351.244 1486.25 Q345.434 1486.25 342.355 1481.67 Q339.299 1477.06 339.299 1468.33 Q339.299 1459.58 342.355 1455 Q345.434 1450.39 351.244 1450.39 Z" fill="#000000" fill-rule="evenodd" fill-opacity="1"></path><path clip-path="url(#clip700)" d="M692.93 1481.64 L700.569 1481.64 L700.569 1455.28 L692.259 1456.95 L692.259 1452.69 L700.523 1451.02 L705.199 1451.02 L705.199 1481.64 L712.838 1481.64 L712.838 1485.58 L692.93 1485.58 L692.93 1481.64 Z" fill="#000000" fill-rule="evenodd" fill-opacity="1"></path><path clip-path="url(#clip700)" d="M722.421 1484.86 L722.421 1480.6 Q724.18 1481.44 725.986 1481.88 Q727.791 1482.32 729.527 1482.32 Q734.157 1482.32 736.588 1479.21 Q739.041 1476.09 739.389 1469.75 Q738.046 1471.74 735.986 1472.8 Q733.926 1473.87 731.426 1473.87 Q726.24 1473.87 723.208 1470.74 Q720.199 1467.59 720.199 1462.15 Q720.199 1456.83 723.347 1453.61 Q726.495 1450.39 731.727 1450.39 Q737.722 1450.39 740.87 1455 Q744.041 1459.58 744.041 1468.33 Q744.041 1476.51 740.152 1481.39 Q736.287 1486.25 729.736 1486.25 Q727.977 1486.25 726.171 1485.9 Q724.365 1485.56 722.421 1484.86 M731.727 1470.21 Q734.875 1470.21 736.703 1468.06 Q738.555 1465.9 738.555 1462.15 Q738.555 1458.43 736.703 1456.27 Q734.875 1454.1 731.727 1454.1 Q728.578 1454.1 726.727 1456.27 Q724.898 1458.43 724.898 1462.15 Q724.898 1465.9 726.727 1468.06 Q728.578 1470.21 731.727 1470.21 Z" fill="#000000" fill-rule="evenodd" fill-opacity="1"></path><path clip-path="url(#clip700)" d="M763.023 1466.44 Q759.875 1466.44 758.023 1468.59 Q756.194 1470.74 756.194 1474.49 Q756.194 1478.22 758.023 1480.39 Q759.875 1482.55 763.023 1482.55 Q766.171 1482.55 767.999 1480.39 Q769.851 1478.22 769.851 1474.49 Q769.851 1470.74 767.999 1468.59 Q766.171 1466.44 763.023 1466.44 M772.305 1451.78 L772.305 1456.04 Q770.546 1455.21 768.74 1454.77 Q766.958 1454.33 765.199 1454.33 Q760.569 1454.33 758.115 1457.45 Q755.685 1460.58 755.338 1466.9 Q756.703 1464.89 758.763 1463.82 Q760.824 1462.73 763.3 1462.73 Q768.509 1462.73 771.518 1465.9 Q774.55 1469.05 774.55 1474.49 Q774.55 1479.82 771.402 1483.03 Q768.254 1486.25 763.023 1486.25 Q757.027 1486.25 753.856 1481.67 Q750.685 1477.06 750.685 1468.33 Q750.685 1460.14 754.574 1455.28 Q758.463 1450.39 765.013 1450.39 Q766.773 1450.39 768.555 1450.74 Q770.361 1451.09 772.305 1451.78 Z" fill="#000000" fill-rule="evenodd" fill-opacity="1"></path><path clip-path="url(#clip700)" d="M792.606 1454.1 Q788.995 1454.1 787.166 1457.66 Q785.361 1461.2 785.361 1468.33 Q785.361 1475.44 787.166 1479.01 Q788.995 1482.55 792.606 1482.55 Q796.24 1482.55 798.046 1479.01 Q799.874 1475.44 799.874 1468.33 Q799.874 1461.2 798.046 1457.66 Q796.24 1454.1 792.606 1454.1 M792.606 1450.39 Q798.416 1450.39 801.472 1455 Q804.55 1459.58 804.55 1468.33 Q804.55 1477.06 801.472 1481.67 Q798.416 1486.25 792.606 1486.25 Q786.796 1486.25 783.717 1481.67 Q780.661 1477.06 780.661 1468.33 Q780.661 1459.58 783.717 1455 Q786.796 1450.39 792.606 1450.39 Z" fill="#000000" fill-rule="evenodd" fill-opacity="1"></path><path clip-path="url(#clip700)" d="M1134.29 1481.64 L1141.93 1481.64 L1141.93 1455.28 L1133.62 1456.95 L1133.62 1452.69 L1141.89 1451.02 L1146.56 1451.02 L1146.56 1481.64 L1154.2 1481.64 L1154.2 1485.58 L1134.29 1485.58 L1134.29 1481.64 Z" fill="#000000" fill-rule="evenodd" fill-opacity="1"></path><path clip-path="url(#clip700)" d="M1163.78 1484.86 L1163.78 1480.6 Q1165.54 1481.44 1167.35 1481.88 Q1169.15 1482.32 1170.89 1482.32 Q1175.52 1482.32 1177.95 1479.21 Q1180.4 1476.09 1180.75 1469.75 Q1179.41 1471.74 1177.35 1472.8 Q1175.29 1473.87 1172.79 1473.87 Q1167.6 1473.87 1164.57 1470.74 Q1161.56 1467.59 1161.56 1462.15 Q1161.56 1456.83 1164.71 1453.61 Q1167.86 1450.39 1173.09 1450.39 Q1179.08 1450.39 1182.23 1455 Q1185.4 1459.58 1185.4 1468.33 Q1185.4 1476.51 1181.51 1481.39 Q1177.65 1486.25 1171.1 1486.25 Q1169.34 1486.25 1167.53 1485.9 Q1165.73 1485.56 1163.78 1484.86 M1173.09 1470.21 Q1176.24 1470.21 1178.07 1468.06 Q1179.92 1465.9 1179.92 1462.15 Q1179.92 1458.43 1178.07 1456.27 Q1176.24 1454.1 1173.09 1454.1 Q1169.94 1454.1 1168.09 1456.27 Q1166.26 1458.43 1166.26 1462.15 Q1166.26 1465.9 1168.09 1468.06 Q1169.94 1470.21 1173.09 1470.21 Z" fill="#000000" fill-rule="evenodd" fill-opacity="1"></path><path clip-path="url(#clip700)" d="M1203.81 1469.17 Q1200.47 1469.17 1198.55 1470.95 Q1196.65 1472.73 1196.65 1475.86 Q1196.65 1478.98 1198.55 1480.77 Q1200.47 1482.55 1203.81 1482.55 Q1207.14 1482.55 1209.06 1480.77 Q1210.98 1478.96 1210.98 1475.86 Q1210.98 1472.73 1209.06 1470.95 Q1207.16 1469.17 1203.81 1469.17 M1199.13 1467.18 Q1196.12 1466.44 1194.43 1464.38 Q1192.76 1462.32 1192.76 1459.35 Q1192.76 1455.21 1195.7 1452.8 Q1198.67 1450.39 1203.81 1450.39 Q1208.97 1450.39 1211.91 1452.8 Q1214.85 1455.21 1214.85 1459.35 Q1214.85 1462.32 1213.16 1464.38 Q1211.49 1466.44 1208.51 1467.18 Q1211.88 1467.96 1213.76 1470.26 Q1215.66 1472.55 1215.66 1475.86 Q1215.66 1480.88 1212.58 1483.57 Q1209.52 1486.25 1203.81 1486.25 Q1198.09 1486.25 1195.01 1483.57 Q1191.95 1480.88 1191.95 1475.86 Q1191.95 1472.55 1193.85 1470.26 Q1195.75 1467.96 1199.13 1467.18 M1197.42 1459.79 Q1197.42 1462.48 1199.08 1463.98 Q1200.77 1465.49 1203.81 1465.49 Q1206.82 1465.49 1208.51 1463.98 Q1210.22 1462.48 1210.22 1459.79 Q1210.22 1457.11 1208.51 1455.6 Q1206.82 1454.1 1203.81 1454.1 Q1200.77 1454.1 1199.08 1455.6 Q1197.42 1457.11 1197.42 1459.79 Z" fill="#000000" fill-rule="evenodd" fill-opacity="1"></path><path clip-path="url(#clip700)" d="M1233.97 1454.1 Q1230.36 1454.1 1228.53 1457.66 Q1226.72 1461.2 1226.72 1468.33 Q1226.72 1475.44 1228.53 1479.01 Q1230.36 1482.55 1233.97 1482.55 Q1237.6 1482.55 1239.41 1479.01 Q1241.24 1475.44 1241.24 1468.33 Q1241.24 1461.2 1239.41 1457.66 Q1237.6 1454.1 1233.97 1454.1 M1233.97 1450.39 Q1239.78 1450.39 1242.83 1455 Q1245.91 1459.58 1245.91 1468.33 Q1245.91 1477.06 1242.83 1481.67 Q1239.78 1486.25 1233.97 1486.25 Q1228.16 1486.25 1225.08 1481.67 Q1222.02 1477.06 1222.02 1468.33 Q1222.02 1459.58 1225.08 1455 Q1228.16 1450.39 1233.97 1450.39 Z" fill="#000000" fill-rule="evenodd" fill-opacity="1"></path><path clip-path="url(#clip700)" d="M1579.74 1481.64 L1596.06 1481.64 L1596.06 1485.58 L1574.12 1485.58 L1574.12 1481.64 Q1576.78 1478.89 1581.36 1474.26 Q1585.97 1469.61 1587.15 1468.27 Q1589.39 1465.74 1590.27 1464.01 Q1591.18 1462.25 1591.18 1460.56 Q1591.18 1457.8 1589.23 1456.07 Q1587.31 1454.33 1584.21 1454.33 Q1582.01 1454.33 1579.56 1455.09 Q1577.12 1455.86 1574.35 1457.41 L1574.35 1452.69 Q1577.17 1451.55 1579.62 1450.97 Q1582.08 1450.39 1584.12 1450.39 Q1589.49 1450.39 1592.68 1453.08 Q1595.87 1455.77 1595.87 1460.26 Q1595.87 1462.39 1595.06 1464.31 Q1594.28 1466.2 1592.17 1468.8 Q1591.59 1469.47 1588.49 1472.69 Q1585.39 1475.88 1579.74 1481.64 Z" fill="#000000" fill-rule="evenodd" fill-opacity="1"></path><path clip-path="url(#clip700)" d="M1615.87 1454.1 Q1612.26 1454.1 1610.43 1457.66 Q1608.63 1461.2 1608.63 1468.33 Q1608.63 1475.44 1610.43 1479.01 Q1612.26 1482.55 1615.87 1482.55 Q1619.51 1482.55 1621.31 1479.01 Q1623.14 1475.44 1623.14 1468.33 Q1623.14 1461.2 1621.31 1457.66 Q1619.51 1454.1 1615.87 1454.1 M1615.87 1450.39 Q1621.68 1450.39 1624.74 1455 Q1627.82 1459.58 1627.82 1468.33 Q1627.82 1477.06 1624.74 1481.67 Q1621.68 1486.25 1615.87 1486.25 Q1610.06 1486.25 1606.99 1481.67 Q1603.93 1477.06 1603.93 1468.33 Q1603.93 1459.58 1606.99 1455 Q1610.06 1450.39 1615.87 1450.39 Z" fill="#000000" fill-rule="evenodd" fill-opacity="1"></path><path clip-path="url(#clip700)" d="M1646.04 1454.1 Q1642.43 1454.1 1640.6 1457.66 Q1638.79 1461.2 1638.79 1468.33 Q1638.79 1475.44 1640.6 1479.01 Q1642.43 1482.55 1646.04 1482.55 Q1649.67 1482.55 1651.48 1479.01 Q1653.3 1475.44 1653.3 1468.33 Q1653.3 1461.2 1651.48 1457.66 Q1649.67 1454.1 1646.04 1454.1 M1646.04 1450.39 Q1651.85 1450.39 1654.9 1455 Q1657.98 1459.58 1657.98 1468.33 Q1657.98 1477.06 1654.9 1481.67 Q1651.85 1486.25 1646.04 1486.25 Q1640.23 1486.25 1637.15 1481.67 Q1634.09 1477.06 1634.09 1468.33 Q1634.09 1459.58 1637.15 1455 Q1640.23 1450.39 1646.04 1450.39 Z" fill="#000000" fill-rule="evenodd" fill-opacity="1"></path><path clip-path="url(#clip700)" d="M1676.2 1454.1 Q1672.59 1454.1 1670.76 1457.66 Q1668.95 1461.2 1668.95 1468.33 Q1668.95 1475.44 1670.76 1479.01 Q1672.59 1482.55 1676.2 1482.55 Q1679.83 1482.55 1681.64 1479.01 Q1683.47 1475.44 1683.47 1468.33 Q1683.47 1461.2 1681.64 1457.66 Q1679.83 1454.1 1676.2 1454.1 M1676.2 1450.39 Q1682.01 1450.39 1685.06 1455 Q1688.14 1459.58 1688.14 1468.33 Q1688.14 1477.06 1685.06 1481.67 Q1682.01 1486.25 1676.2 1486.25 Q1670.39 1486.25 1667.31 1481.67 Q1664.25 1477.06 1664.25 1468.33 Q1664.25 1459.58 1667.31 1455 Q1670.39 1450.39 1676.2 1450.39 Z" fill="#000000" fill-rule="evenodd" fill-opacity="1"></path><path clip-path="url(#clip700)" d="M2021.1 1481.64 L2037.42 1481.64 L2037.42 1485.58 L2015.48 1485.58 L2015.48 1481.64 Q2018.14 1478.89 2022.72 1474.26 Q2027.33 1469.61 2028.51 1468.27 Q2030.76 1465.74 2031.63 1464.01 Q2032.54 1462.25 2032.54 1460.56 Q2032.54 1457.8 2030.59 1456.07 Q2028.67 1454.33 2025.57 1454.33 Q2023.37 1454.33 2020.92 1455.09 Q2018.49 1455.86 2015.71 1457.41 L2015.71 1452.69 Q2018.53 1451.55 2020.99 1450.97 Q2023.44 1450.39 2025.48 1450.39 Q2030.85 1450.39 2034.04 1453.08 Q2037.24 1455.77 2037.24 1460.26 Q2037.24 1462.39 2036.43 1464.31 Q2035.64 1466.2 2033.53 1468.8 Q2032.95 1469.47 2029.85 1472.69 Q2026.75 1475.88 2021.1 1481.64 Z" fill="#000000" fill-rule="evenodd" fill-opacity="1"></path><path clip-path="url(#clip700)" d="M2057.24 1454.1 Q2053.63 1454.1 2051.8 1457.66 Q2049.99 1461.2 2049.99 1468.33 Q2049.99 1475.44 2051.8 1479.01 Q2053.63 1482.55 2057.24 1482.55 Q2060.87 1482.55 2062.68 1479.01 Q2064.5 1475.44 2064.5 1468.33 Q2064.5 1461.2 2062.68 1457.66 Q2060.87 1454.1 2057.24 1454.1 M2057.24 1450.39 Q2063.05 1450.39 2066.1 1455 Q2069.18 1459.58 2069.18 1468.33 Q2069.18 1477.06 2066.1 1481.67 Q2063.05 1486.25 2057.24 1486.25 Q2051.43 1486.25 2048.35 1481.67 Q2045.29 1477.06 2045.29 1468.33 Q2045.29 1459.58 2048.35 1455 Q2051.43 1450.39 2057.24 1450.39 Z" fill="#000000" fill-rule="evenodd" fill-opacity="1"></path><path clip-path="url(#clip700)" d="M2081.43 1481.64 L2097.75 1481.64 L2097.75 1485.58 L2075.8 1485.58 L2075.8 1481.64 Q2078.46 1478.89 2083.05 1474.26 Q2087.65 1469.61 2088.83 1468.27 Q2091.08 1465.74 2091.96 1464.01 Q2092.86 1462.25 2092.86 1460.56 Q2092.86 1457.8 2090.92 1456.07 Q2089 1454.33 2085.89 1454.33 Q2083.69 1454.33 2081.24 1455.09 Q2078.81 1455.86 2076.03 1457.41 L2076.03 1452.69 Q2078.86 1451.55 2081.31 1450.97 Q2083.76 1450.39 2085.8 1450.39 Q2091.17 1450.39 2094.37 1453.08 Q2097.56 1455.77 2097.56 1460.26 Q2097.56 1462.39 2096.75 1464.31 Q2095.96 1466.2 2093.86 1468.8 Q2093.28 1469.47 2090.18 1472.69 Q2087.07 1475.88 2081.43 1481.64 Z" fill="#000000" fill-rule="evenodd" fill-opacity="1"></path><path clip-path="url(#clip700)" d="M2117.56 1454.1 Q2113.95 1454.1 2112.12 1457.66 Q2110.31 1461.2 2110.31 1468.33 Q2110.31 1475.44 2112.12 1479.01 Q2113.95 1482.55 2117.56 1482.55 Q2121.19 1482.55 2123 1479.01 Q2124.83 1475.44 2124.83 1468.33 Q2124.83 1461.2 2123 1457.66 Q2121.19 1454.1 2117.56 1454.1 M2117.56 1450.39 Q2123.37 1450.39 2126.43 1455 Q2129.5 1459.58 2129.5 1468.33 Q2129.5 1477.06 2126.43 1481.67 Q2123.37 1486.25 2117.56 1486.25 Q2111.75 1486.25 2108.67 1481.67 Q2105.62 1477.06 2105.62 1468.33 Q2105.62 1459.58 2108.67 1455 Q2111.75 1450.39 2117.56 1450.39 Z" fill="#000000" fill-rule="evenodd" fill-opacity="1"></path><path clip-path="url(#clip700)" d="M1231.04 1520.52 L1237.95 1520.52 L1251.12 1540.07 L1264.2 1520.52 L1271.11 1520.52 L1254.31 1545.41 L1254.31 1568.04 L1247.84 1568.04 L1247.84 1545.41 L1231.04 1520.52 Z" fill="#000000" fill-rule="evenodd" fill-opacity="1"></path><path clip-path="url(#clip700)" d="M1298.96 1548.76 L1298.96 1551.62 L1272.03 1551.62 Q1272.42 1557.67 1275.66 1560.85 Q1278.94 1564 1284.77 1564 Q1288.14 1564 1291.29 1563.17 Q1294.47 1562.35 1297.59 1560.69 L1297.59 1566.23 Q1294.44 1567.57 1291.13 1568.27 Q1287.82 1568.97 1284.42 1568.97 Q1275.89 1568.97 1270.89 1564 Q1265.92 1559.04 1265.92 1550.57 Q1265.92 1541.82 1270.63 1536.69 Q1275.38 1531.54 1283.4 1531.54 Q1290.59 1531.54 1294.76 1536.18 Q1298.96 1540.8 1298.96 1548.76 M1293.11 1547.04 Q1293.04 1542.23 1290.4 1539.37 Q1287.79 1536.5 1283.46 1536.5 Q1278.56 1536.5 1275.6 1539.27 Q1272.67 1542.04 1272.23 1547.07 L1293.11 1547.04 Z" fill="#000000" fill-rule="evenodd" fill-opacity="1"></path><path clip-path="url(#clip700)" d="M1324.77 1550.12 Q1317.68 1550.12 1314.94 1551.75 Q1312.2 1553.37 1312.2 1557.29 Q1312.2 1560.4 1314.24 1562.25 Q1316.31 1564.07 1319.84 1564.07 Q1324.71 1564.07 1327.64 1560.63 Q1330.6 1557.16 1330.6 1551.43 L1330.6 1550.12 L1324.77 1550.12 M1336.46 1547.71 L1336.46 1568.04 L1330.6 1568.04 L1330.6 1562.63 Q1328.59 1565.88 1325.6 1567.44 Q1322.61 1568.97 1318.28 1568.97 Q1312.81 1568.97 1309.56 1565.91 Q1306.35 1562.82 1306.35 1557.67 Q1306.35 1551.65 1310.36 1548.6 Q1314.4 1545.54 1322.39 1545.54 L1330.6 1545.54 L1330.6 1544.97 Q1330.6 1540.93 1327.93 1538.73 Q1325.28 1536.5 1320.48 1536.5 Q1317.42 1536.5 1314.53 1537.23 Q1311.63 1537.97 1308.96 1539.43 L1308.96 1534.02 Q1312.17 1532.78 1315.19 1532.17 Q1318.22 1531.54 1321.08 1531.54 Q1328.82 1531.54 1332.64 1535.55 Q1336.46 1539.56 1336.46 1547.71 Z" fill="#000000" fill-rule="evenodd" fill-opacity="1"></path><path clip-path="url(#clip700)" d="M1369.18 1537.87 Q1368.19 1537.3 1367.01 1537.04 Q1365.87 1536.76 1364.46 1536.76 Q1359.5 1536.76 1356.83 1540 Q1354.18 1543.22 1354.18 1549.27 L1354.18 1568.04 L1348.3 1568.04 L1348.3 1532.4 L1354.18 1532.4 L1354.18 1537.93 Q1356.03 1534.69 1358.99 1533.13 Q1361.95 1531.54 1366.18 1531.54 Q1366.79 1531.54 1367.52 1531.63 Q1368.25 1531.7 1369.14 1531.85 L1369.18 1537.87 Z" fill="#000000" fill-rule="evenodd" fill-opacity="1"></path><polyline clip-path="url(#clip702)" style="stroke:#000000; stroke-linecap:round; stroke-linejoin:round; stroke-width:2; stroke-opacity:0.1; fill:none" points="
  247.459,1324.72 2352.76,1324.72 
  "></polyline>
<polyline clip-path="url(#clip702)" style="stroke:#000000; stroke-linecap:round; stroke-linejoin:round; stroke-width:2; stroke-opacity:0.1; fill:none" points="
  247.459,1011.72 2352.76,1011.72 
  "></polyline>
<polyline clip-path="url(#clip702)" style="stroke:#000000; stroke-linecap:round; stroke-linejoin:round; stroke-width:2; stroke-opacity:0.1; fill:none" points="
  247.459,698.708 2352.76,698.708 
  "></polyline>
<polyline clip-path="url(#clip702)" style="stroke:#000000; stroke-linecap:round; stroke-linejoin:round; stroke-width:2; stroke-opacity:0.1; fill:none" points="
  247.459,385.701 2352.76,385.701 
  "></polyline>
<polyline clip-path="url(#clip700)" style="stroke:#000000; stroke-linecap:round; stroke-linejoin:round; stroke-width:4; stroke-opacity:1; fill:none" points="
  247.459,1423.18 247.459,183.952 
  "></polyline>
<polyline clip-path="url(#clip700)" style="stroke:#000000; stroke-linecap:round; stroke-linejoin:round; stroke-width:4; stroke-opacity:1; fill:none" points="
  247.459,1324.72 266.356,1324.72 
  "></polyline>
<polyline clip-path="url(#clip700)" style="stroke:#000000; stroke-linecap:round; stroke-linejoin:round; stroke-width:4; stroke-opacity:1; fill:none" points="
  247.459,1011.72 266.356,1011.72 
  "></polyline>
<polyline clip-path="url(#clip700)" style="stroke:#000000; stroke-linecap:round; stroke-linejoin:round; stroke-width:4; stroke-opacity:1; fill:none" points="
  247.459,698.708 266.356,698.708 
  "></polyline>
<polyline clip-path="url(#clip700)" style="stroke:#000000; stroke-linecap:round; stroke-linejoin:round; stroke-width:4; stroke-opacity:1; fill:none" points="
  247.459,385.701 266.356,385.701 
  "></polyline>
<path clip-path="url(#clip700)" d="M144.26 1341.29 L144.26 1337.03 Q146.019 1337.86 147.825 1338.3 Q149.63 1338.74 151.366 1338.74 Q155.996 1338.74 158.427 1335.64 Q160.88 1332.51 161.227 1326.17 Q159.885 1328.16 157.825 1329.23 Q155.765 1330.29 153.265 1330.29 Q148.079 1330.29 145.047 1327.17 Q142.038 1324.02 142.038 1318.58 Q142.038 1313.25 145.186 1310.04 Q148.334 1306.82 153.566 1306.82 Q159.561 1306.82 162.709 1311.42 Q165.88 1316.01 165.88 1324.76 Q165.88 1332.93 161.991 1337.81 Q158.126 1342.67 151.575 1342.67 Q149.816 1342.67 148.01 1342.33 Q146.204 1341.98 144.26 1341.29 M153.566 1326.63 Q156.714 1326.63 158.542 1324.48 Q160.394 1322.33 160.394 1318.58 Q160.394 1314.85 158.542 1312.7 Q156.714 1310.52 153.566 1310.52 Q150.417 1310.52 148.566 1312.7 Q146.737 1314.85 146.737 1318.58 Q146.737 1322.33 148.566 1324.48 Q150.417 1326.63 153.566 1326.63 Z" fill="#000000" fill-rule="evenodd" fill-opacity="1"></path><path clip-path="url(#clip700)" d="M174.283 1336.12 L179.167 1336.12 L179.167 1342 L174.283 1342 L174.283 1336.12 Z" fill="#000000" fill-rule="evenodd" fill-opacity="1"></path><path clip-path="url(#clip700)" d="M199.931 1322.86 Q196.783 1322.86 194.931 1325.01 Q193.102 1327.17 193.102 1330.92 Q193.102 1334.64 194.931 1336.82 Q196.783 1338.97 199.931 1338.97 Q203.079 1338.97 204.908 1336.82 Q206.76 1334.64 206.76 1330.92 Q206.76 1327.17 204.908 1325.01 Q203.079 1322.86 199.931 1322.86 M209.213 1308.21 L209.213 1312.47 Q207.454 1311.63 205.649 1311.19 Q203.866 1310.75 202.107 1310.75 Q197.477 1310.75 195.024 1313.88 Q192.593 1317 192.246 1323.32 Q193.612 1321.31 195.672 1320.24 Q197.732 1319.16 200.209 1319.16 Q205.417 1319.16 208.426 1322.33 Q211.459 1325.48 211.459 1330.92 Q211.459 1336.24 208.311 1339.46 Q205.162 1342.67 199.931 1342.67 Q193.936 1342.67 190.764 1338.09 Q187.593 1333.48 187.593 1324.76 Q187.593 1316.56 191.482 1311.7 Q195.371 1306.82 201.922 1306.82 Q203.681 1306.82 205.463 1307.17 Q207.269 1307.51 209.213 1308.21 Z" fill="#000000" fill-rule="evenodd" fill-opacity="1"></path><path clip-path="url(#clip700)" d="M144.515 1028.28 L144.515 1024.02 Q146.274 1024.85 148.079 1025.29 Q149.885 1025.73 151.621 1025.73 Q156.251 1025.73 158.681 1022.63 Q161.135 1019.51 161.482 1013.16 Q160.14 1015.15 158.079 1016.22 Q156.019 1017.28 153.519 1017.28 Q148.334 1017.28 145.302 1014.16 Q142.292 1011.01 142.292 1005.57 Q142.292 1000.25 145.441 997.029 Q148.589 993.811 153.82 993.811 Q159.815 993.811 162.964 998.417 Q166.135 1003 166.135 1011.75 Q166.135 1019.92 162.246 1024.81 Q158.38 1029.67 151.829 1029.67 Q150.07 1029.67 148.265 1029.32 Q146.459 1028.97 144.515 1028.28 M153.82 1013.63 Q156.968 1013.63 158.797 1011.47 Q160.649 1009.32 160.649 1005.57 Q160.649 1001.84 158.797 999.691 Q156.968 997.515 153.82 997.515 Q150.672 997.515 148.82 999.691 Q146.991 1001.84 146.991 1005.57 Q146.991 1009.32 148.82 1011.47 Q150.672 1013.63 153.82 1013.63 Z" fill="#000000" fill-rule="evenodd" fill-opacity="1"></path><path clip-path="url(#clip700)" d="M174.538 1023.12 L179.422 1023.12 L179.422 1029 L174.538 1029 L174.538 1023.12 Z" fill="#000000" fill-rule="evenodd" fill-opacity="1"></path><path clip-path="url(#clip700)" d="M199.607 1012.58 Q196.274 1012.58 194.352 1014.37 Q192.454 1016.15 192.454 1019.27 Q192.454 1022.4 194.352 1024.18 Q196.274 1025.96 199.607 1025.96 Q202.94 1025.96 204.862 1024.18 Q206.783 1022.38 206.783 1019.27 Q206.783 1016.15 204.862 1014.37 Q202.963 1012.58 199.607 1012.58 M194.931 1010.59 Q191.922 1009.85 190.232 1007.79 Q188.565 1005.73 188.565 1002.77 Q188.565 998.626 191.505 996.218 Q194.468 993.811 199.607 993.811 Q204.769 993.811 207.709 996.218 Q210.649 998.626 210.649 1002.77 Q210.649 1005.73 208.959 1007.79 Q207.292 1009.85 204.306 1010.59 Q207.686 1011.38 209.561 1013.67 Q211.459 1015.96 211.459 1019.27 Q211.459 1024.3 208.38 1026.98 Q205.324 1029.67 199.607 1029.67 Q193.889 1029.67 190.811 1026.98 Q187.755 1024.3 187.755 1019.27 Q187.755 1015.96 189.653 1013.67 Q191.551 1011.38 194.931 1010.59 M193.218 1003.21 Q193.218 1005.89 194.885 1007.4 Q196.575 1008.9 199.607 1008.9 Q202.616 1008.9 204.306 1007.4 Q206.019 1005.89 206.019 1003.21 Q206.019 1000.52 204.306 999.019 Q202.616 997.515 199.607 997.515 Q196.575 997.515 194.885 999.019 Q193.218 1000.52 193.218 1003.21 Z" fill="#000000" fill-rule="evenodd" fill-opacity="1"></path><path clip-path="url(#clip700)" d="M114.931 712.053 L122.57 712.053 L122.57 685.688 L114.26 687.354 L114.26 683.095 L122.524 681.428 L127.2 681.428 L127.2 712.053 L134.839 712.053 L134.839 715.988 L114.931 715.988 L114.931 712.053 Z" fill="#000000" fill-rule="evenodd" fill-opacity="1"></path><path clip-path="url(#clip700)" d="M154.283 684.507 Q150.672 684.507 148.843 688.072 Q147.038 691.614 147.038 698.743 Q147.038 705.85 148.843 709.414 Q150.672 712.956 154.283 712.956 Q157.917 712.956 159.723 709.414 Q161.552 705.85 161.552 698.743 Q161.552 691.614 159.723 688.072 Q157.917 684.507 154.283 684.507 M154.283 680.803 Q160.093 680.803 163.149 685.41 Q166.227 689.993 166.227 698.743 Q166.227 707.47 163.149 712.076 Q160.093 716.66 154.283 716.66 Q148.473 716.66 145.394 712.076 Q142.339 707.47 142.339 698.743 Q142.339 689.993 145.394 685.41 Q148.473 680.803 154.283 680.803 Z" fill="#000000" fill-rule="evenodd" fill-opacity="1"></path><path clip-path="url(#clip700)" d="M174.445 710.109 L179.329 710.109 L179.329 715.988 L174.445 715.988 L174.445 710.109 Z" fill="#000000" fill-rule="evenodd" fill-opacity="1"></path><path clip-path="url(#clip700)" d="M199.514 684.507 Q195.903 684.507 194.075 688.072 Q192.269 691.614 192.269 698.743 Q192.269 705.85 194.075 709.414 Q195.903 712.956 199.514 712.956 Q203.149 712.956 204.954 709.414 Q206.783 705.85 206.783 698.743 Q206.783 691.614 204.954 688.072 Q203.149 684.507 199.514 684.507 M199.514 680.803 Q205.324 680.803 208.38 685.41 Q211.459 689.993 211.459 698.743 Q211.459 707.47 208.38 712.076 Q205.324 716.66 199.514 716.66 Q193.704 716.66 190.625 712.076 Q187.57 707.47 187.57 698.743 Q187.57 689.993 190.625 685.41 Q193.704 680.803 199.514 680.803 Z" fill="#000000" fill-rule="evenodd" fill-opacity="1"></path><path clip-path="url(#clip700)" d="M116.529 399.046 L124.168 399.046 L124.168 372.68 L115.857 374.347 L115.857 370.088 L124.121 368.421 L128.797 368.421 L128.797 399.046 L136.436 399.046 L136.436 402.981 L116.529 402.981 L116.529 399.046 Z" fill="#000000" fill-rule="evenodd" fill-opacity="1"></path><path clip-path="url(#clip700)" d="M155.88 371.5 Q152.269 371.5 150.441 375.065 Q148.635 378.606 148.635 385.736 Q148.635 392.842 150.441 396.407 Q152.269 399.949 155.88 399.949 Q159.515 399.949 161.32 396.407 Q163.149 392.842 163.149 385.736 Q163.149 378.606 161.32 375.065 Q159.515 371.5 155.88 371.5 M155.88 367.796 Q161.69 367.796 164.746 372.403 Q167.825 376.986 167.825 385.736 Q167.825 394.463 164.746 399.069 Q161.69 403.652 155.88 403.652 Q150.07 403.652 146.991 399.069 Q143.936 394.463 143.936 385.736 Q143.936 376.986 146.991 372.403 Q150.07 367.796 155.88 367.796 Z" fill="#000000" fill-rule="evenodd" fill-opacity="1"></path><path clip-path="url(#clip700)" d="M176.042 397.101 L180.926 397.101 L180.926 402.981 L176.042 402.981 L176.042 397.101 Z" fill="#000000" fill-rule="evenodd" fill-opacity="1"></path><path clip-path="url(#clip700)" d="M195.139 399.046 L211.459 399.046 L211.459 402.981 L189.514 402.981 L189.514 399.046 Q192.176 396.291 196.76 391.662 Q201.366 387.009 202.547 385.666 Q204.792 383.143 205.672 381.407 Q206.574 379.648 206.574 377.958 Q206.574 375.203 204.63 373.467 Q202.709 371.731 199.607 371.731 Q197.408 371.731 194.954 372.495 Q192.524 373.259 189.746 374.81 L189.746 370.088 Q192.57 368.953 195.024 368.375 Q197.477 367.796 199.514 367.796 Q204.885 367.796 208.079 370.481 Q211.274 373.166 211.274 377.657 Q211.274 379.787 210.463 381.708 Q209.676 383.606 207.57 386.199 Q206.991 386.87 203.889 390.088 Q200.787 393.282 195.139 399.046 Z" fill="#000000" fill-rule="evenodd" fill-opacity="1"></path><path clip-path="url(#clip700)" d="M16.4842 1123.19 L16.4842 1116.7 L56.6518 1106.7 L16.4842 1096.74 L16.4842 1089.51 L56.6518 1079.52 L16.4842 1069.56 L16.4842 1063.03 L64.0042 1074.97 L64.0042 1083.05 L22.7544 1093.08 L64.0042 1103.2 L64.0042 1111.28 L16.4842 1123.19 Z" fill="#000000" fill-rule="evenodd" fill-opacity="1"></path><path clip-path="url(#clip700)" d="M28.3562 1056.19 L28.3562 1050.33 L64.0042 1050.33 L64.0042 1056.19 L28.3562 1056.19 M14.479 1056.19 L14.479 1050.33 L21.895 1050.33 L21.895 1056.19 L14.479 1056.19 Z" fill="#000000" fill-rule="evenodd" fill-opacity="1"></path><path clip-path="url(#clip700)" d="M42.4881 1008.45 L64.0042 1008.45 L64.0042 1014.3 L42.679 1014.3 Q37.6183 1014.3 35.1038 1016.28 Q32.5894 1018.25 32.5894 1022.2 Q32.5894 1026.94 35.6131 1029.68 Q38.6368 1032.41 43.8567 1032.41 L64.0042 1032.41 L64.0042 1038.3 L28.3562 1038.3 L28.3562 1032.41 L33.8944 1032.41 Q30.6797 1030.31 29.0883 1027.48 Q27.4968 1024.62 27.4968 1020.89 Q27.4968 1014.75 31.3163 1011.6 Q35.1038 1008.45 42.4881 1008.45 Z" fill="#000000" fill-rule="evenodd" fill-opacity="1"></path><path clip-path="url(#clip700)" d="M42.4881 967.133 L64.0042 967.133 L64.0042 972.989 L42.679 972.989 Q37.6183 972.989 35.1038 974.963 Q32.5894 976.936 32.5894 980.883 Q32.5894 985.625 35.6131 988.362 Q38.6368 991.1 43.8567 991.1 L64.0042 991.1 L64.0042 996.988 L28.3562 996.988 L28.3562 991.1 L33.8944 991.1 Q30.6797 988.999 29.0883 986.166 Q27.4968 983.302 27.4968 979.578 Q27.4968 973.435 31.3163 970.284 Q35.1038 967.133 42.4881 967.133 Z" fill="#000000" fill-rule="evenodd" fill-opacity="1"></path><path clip-path="url(#clip700)" d="M28.3562 955.452 L28.3562 949.595 L64.0042 949.595 L64.0042 955.452 L28.3562 955.452 M14.479 955.452 L14.479 949.595 L21.895 949.595 L21.895 955.452 L14.479 955.452 Z" fill="#000000" fill-rule="evenodd" fill-opacity="1"></path><path clip-path="url(#clip700)" d="M42.4881 907.709 L64.0042 907.709 L64.0042 913.565 L42.679 913.565 Q37.6183 913.565 35.1038 915.539 Q32.5894 917.512 32.5894 921.459 Q32.5894 926.201 35.6131 928.939 Q38.6368 931.676 43.8567 931.676 L64.0042 931.676 L64.0042 937.564 L28.3562 937.564 L28.3562 931.676 L33.8944 931.676 Q30.6797 929.575 29.0883 926.742 Q27.4968 923.878 27.4968 920.154 Q27.4968 914.011 31.3163 910.86 Q35.1038 907.709 42.4881 907.709 Z" fill="#000000" fill-rule="evenodd" fill-opacity="1"></path><path clip-path="url(#clip700)" d="M45.7664 872.57 Q39.4007 872.57 35.8996 875.212 Q32.3984 877.822 32.3984 882.564 Q32.3984 887.275 35.8996 889.917 Q39.4007 892.527 45.7664 892.527 Q52.1003 892.527 55.6014 889.917 Q59.1026 887.275 59.1026 882.564 Q59.1026 877.822 55.6014 875.212 Q52.1003 872.57 45.7664 872.57 M59.58 866.714 Q68.683 866.714 73.1071 870.756 Q77.5631 874.798 77.5631 883.137 Q77.5631 886.225 77.0857 888.962 Q76.6401 891.699 75.6852 894.277 L69.9879 894.277 Q71.3884 891.699 72.0568 889.185 Q72.7252 886.67 72.7252 884.06 Q72.7252 878.299 69.7015 875.435 Q66.7096 872.57 60.6303 872.57 L57.7339 872.57 Q60.885 874.384 62.4446 877.217 Q64.0042 880.05 64.0042 883.997 Q64.0042 890.553 59.0071 894.564 Q54.01 898.574 45.7664 898.574 Q37.491 898.574 32.4939 894.564 Q27.4968 890.553 27.4968 883.997 Q27.4968 880.05 29.0564 877.217 Q30.616 874.384 33.7671 872.57 L28.3562 872.57 L28.3562 866.714 L59.58 866.714 Z" fill="#000000" fill-rule="evenodd" fill-opacity="1"></path><path clip-path="url(#clip700)" d="M16.4842 840.264 L16.4842 800.065 L21.895 800.065 L21.895 816.934 L64.0042 816.934 L64.0042 823.395 L21.895 823.395 L21.895 840.264 L16.4842 840.264 Z" fill="#000000" fill-rule="evenodd" fill-opacity="1"></path><path clip-path="url(#clip700)" d="M28.3562 796.118 L28.3562 790.262 L64.0042 790.262 L64.0042 796.118 L28.3562 796.118 M14.479 796.118 L14.479 790.262 L21.895 790.262 L21.895 796.118 L14.479 796.118 Z" fill="#000000" fill-rule="evenodd" fill-opacity="1"></path><path clip-path="url(#clip700)" d="M35.1993 750.253 Q31.2526 748.057 29.3747 745.001 Q27.4968 741.946 27.4968 737.808 Q27.4968 732.238 31.4117 729.215 Q35.2948 726.191 42.4881 726.191 L64.0042 726.191 L64.0042 732.079 L42.679 732.079 Q37.5546 732.079 35.072 733.893 Q32.5894 735.708 32.5894 739.431 Q32.5894 743.983 35.6131 746.625 Q38.6368 749.267 43.8567 749.267 L64.0042 749.267 L64.0042 755.155 L42.679 755.155 Q37.5228 755.155 35.072 756.969 Q32.5894 758.783 32.5894 762.571 Q32.5894 767.059 35.6449 769.7 Q38.6686 772.342 43.8567 772.342 L64.0042 772.342 L64.0042 778.23 L28.3562 778.23 L28.3562 772.342 L33.8944 772.342 Q30.616 770.337 29.0564 767.536 Q27.4968 764.735 27.4968 760.884 Q27.4968 757.001 29.4702 754.295 Q31.4436 751.558 35.1993 750.253 Z" fill="#000000" fill-rule="evenodd" fill-opacity="1"></path><path clip-path="url(#clip700)" d="M44.7161 684.018 L47.5806 684.018 L47.5806 710.945 Q53.6281 710.563 56.8109 707.316 Q59.9619 704.038 59.9619 698.214 Q59.9619 694.84 59.1344 691.689 Q58.3069 688.506 56.6518 685.387 L62.1899 685.387 Q63.5267 688.538 64.227 691.848 Q64.9272 695.158 64.9272 698.564 Q64.9272 707.094 59.9619 712.091 Q54.9967 717.056 46.5303 717.056 Q37.7774 717.056 32.6531 712.345 Q27.4968 707.603 27.4968 699.582 Q27.4968 692.389 32.1438 688.219 Q36.7589 684.018 44.7161 684.018 M42.9973 689.874 Q38.1912 689.938 35.3266 692.58 Q32.4621 695.19 32.4621 699.519 Q32.4621 704.42 35.2312 707.38 Q38.0002 710.308 43.0292 710.754 L42.9973 689.874 Z" fill="#000000" fill-rule="evenodd" fill-opacity="1"></path><path clip-path="url(#clip700)" d="M14.5426 639.617 Q21.8632 643.882 29.0246 645.951 Q36.186 648.02 43.5384 648.02 Q50.8908 648.02 58.1159 645.951 Q65.3091 643.85 72.5979 639.617 L72.5979 644.71 Q65.1182 649.484 57.8931 651.871 Q50.668 654.227 43.5384 654.227 Q36.4406 654.227 29.2474 651.871 Q22.0542 649.516 14.5426 644.71 L14.5426 639.617 Z" fill="#000000" fill-rule="evenodd" fill-opacity="1"></path><path clip-path="url(#clip700)" d="M29.4065 605.529 L34.9447 605.529 Q33.6716 608.011 33.035 610.685 Q32.3984 613.359 32.3984 616.223 Q32.3984 620.584 33.7352 622.78 Q35.072 624.944 37.7456 624.944 Q39.7826 624.944 40.9603 623.385 Q42.1061 621.825 43.1565 617.114 L43.6021 615.109 Q44.9389 608.871 47.3897 606.261 Q49.8086 603.619 54.1691 603.619 Q59.1344 603.619 62.0308 607.566 Q64.9272 611.481 64.9272 618.356 Q64.9272 621.22 64.3543 624.34 Q63.8132 627.427 62.6992 630.864 L56.6518 630.864 Q58.3387 627.618 59.198 624.467 Q60.0256 621.316 60.0256 618.228 Q60.0256 614.091 58.6251 611.863 Q57.1929 609.635 54.6147 609.635 Q52.2276 609.635 50.9545 611.258 Q49.6813 612.849 48.5037 618.292 L48.0262 620.329 Q46.8804 625.772 44.5251 628.191 Q42.138 630.61 38.0002 630.61 Q32.9713 630.61 30.2341 627.045 Q27.4968 623.48 27.4968 616.923 Q27.4968 613.677 27.9743 610.812 Q28.4517 607.948 29.4065 605.529 Z" fill="#000000" fill-rule="evenodd" fill-opacity="1"></path><path clip-path="url(#clip700)" d="M44.7161 563.802 L47.5806 563.802 L47.5806 590.729 Q53.6281 590.347 56.8109 587.1 Q59.9619 583.822 59.9619 577.997 Q59.9619 574.623 59.1344 571.472 Q58.3069 568.289 56.6518 565.17 L62.1899 565.17 Q63.5267 568.321 64.227 571.631 Q64.9272 574.942 64.9272 578.347 Q64.9272 586.877 59.9619 591.874 Q54.9967 596.84 46.5303 596.84 Q37.7774 596.84 32.6531 592.129 Q27.4968 587.387 27.4968 579.366 Q27.4968 572.173 32.1438 568.003 Q36.7589 563.802 44.7161 563.802 M42.9973 569.658 Q38.1912 569.722 35.3266 572.364 Q32.4621 574.973 32.4621 579.302 Q32.4621 584.204 35.2312 587.164 Q38.0002 590.092 43.0292 590.538 L42.9973 569.658 Z" fill="#000000" fill-rule="evenodd" fill-opacity="1"></path><path clip-path="url(#clip700)" d="M29.7248 528.536 L35.1993 528.536 Q33.8307 531.018 33.1623 533.533 Q32.4621 536.015 32.4621 538.562 Q32.4621 544.259 36.0905 547.41 Q39.6872 550.561 46.212 550.561 Q52.7369 550.561 56.3653 547.41 Q59.9619 544.259 59.9619 538.562 Q59.9619 536.015 59.2935 533.533 Q58.5933 531.018 57.2247 528.536 L62.6355 528.536 Q63.7814 530.986 64.3543 533.628 Q64.9272 536.238 64.9272 539.198 Q64.9272 547.251 59.8664 551.993 Q54.8057 556.736 46.212 556.736 Q37.491 556.736 32.4939 551.961 Q27.4968 547.155 27.4968 538.816 Q27.4968 536.111 28.0697 533.533 Q28.6108 530.955 29.7248 528.536 Z" fill="#000000" fill-rule="evenodd" fill-opacity="1"></path><path clip-path="url(#clip700)" d="M55.9197 517.523 L55.9197 510.807 L64.0042 510.807 L64.0042 517.523 L55.9197 517.523 Z" fill="#000000" fill-rule="evenodd" fill-opacity="1"></path><path clip-path="url(#clip700)" d="M14.5426 498.553 L14.5426 493.461 Q22.0542 488.686 29.2474 486.331 Q36.4406 483.944 43.5384 483.944 Q50.668 483.944 57.8931 486.331 Q65.1182 488.686 72.5979 493.461 L72.5979 498.553 Q65.3091 494.32 58.1159 492.251 Q50.8908 490.15 43.5384 490.15 Q36.186 490.15 29.0246 492.251 Q21.8632 494.32 14.5426 498.553 Z" fill="#000000" fill-rule="evenodd" fill-opacity="1"></path><path clip-path="url(#clip700)" d="M557.739 41.3253 L546.639 71.4235 L568.879 71.4235 L557.739 41.3253 M553.121 33.264 L562.397 33.264 L585.447 93.744 L576.94 93.744 L571.431 78.229 L544.168 78.229 L538.659 93.744 L530.03 93.744 L553.121 33.264 Z" fill="#000000" fill-rule="evenodd" fill-opacity="1"></path><path clip-path="url(#clip700)" d="M620.649 33.264 L628.832 33.264 L628.832 86.8575 L658.282 86.8575 L658.282 93.744 L620.649 93.744 L620.649 33.264 Z" fill="#000000" fill-rule="evenodd" fill-opacity="1"></path><path clip-path="url(#clip700)" d="M666.546 48.3739 L674 48.3739 L674 93.744 L666.546 93.744 L666.546 48.3739 M666.546 30.7119 L674 30.7119 L674 40.1505 L666.546 40.1505 L666.546 30.7119 Z" fill="#000000" fill-rule="evenodd" fill-opacity="1"></path><path clip-path="url(#clip700)" d="M727.309 66.3599 L727.309 93.744 L719.856 93.744 L719.856 66.6029 Q719.856 60.162 717.344 56.9618 Q714.833 53.7616 709.81 53.7616 Q703.774 53.7616 700.29 57.6099 Q696.806 61.4583 696.806 68.1018 L696.806 93.744 L689.312 93.744 L689.312 48.3739 L696.806 48.3739 L696.806 55.4224 Q699.48 51.331 703.085 49.3056 Q706.731 47.2801 711.47 47.2801 Q719.289 47.2801 723.299 52.1412 Q727.309 56.9618 727.309 66.3599 Z" fill="#000000" fill-rule="evenodd" fill-opacity="1"></path><path clip-path="url(#clip700)" d="M780.984 69.1955 L780.984 72.8413 L746.713 72.8413 Q747.199 80.5381 751.331 84.589 Q755.504 88.5994 762.917 88.5994 Q767.211 88.5994 771.221 87.5461 Q775.272 86.4929 779.242 84.3864 L779.242 91.435 Q775.232 93.1364 771.019 94.0276 Q766.806 94.9188 762.471 94.9188 Q751.615 94.9188 745.255 88.5994 Q738.936 82.2799 738.936 71.5045 Q738.936 60.3645 744.931 53.8426 Q750.967 47.2801 761.175 47.2801 Q770.33 47.2801 775.637 53.1944 Q780.984 59.0683 780.984 69.1955 M773.53 67.008 Q773.449 60.8912 770.087 57.2454 Q766.765 53.5995 761.256 53.5995 Q755.018 53.5995 751.25 57.1238 Q747.523 60.6481 746.956 67.0485 L773.53 67.008 Z" fill="#000000" fill-rule="evenodd" fill-opacity="1"></path><path clip-path="url(#clip700)" d="M813.837 70.9374 Q804.803 70.9374 801.319 73.0034 Q797.836 75.0693 797.836 80.0519 Q797.836 84.0218 800.428 86.3714 Q803.061 88.6804 807.558 88.6804 Q813.756 88.6804 817.483 84.3054 Q821.25 79.8899 821.25 72.5983 L821.25 70.9374 L813.837 70.9374 M828.704 67.8587 L828.704 93.744 L821.25 93.744 L821.25 86.8575 Q818.698 90.9894 814.89 92.9743 Q811.082 94.9188 805.573 94.9188 Q798.605 94.9188 794.473 91.0299 Q790.382 87.1005 790.382 80.5381 Q790.382 72.8818 795.486 68.993 Q800.631 65.1041 810.799 65.1041 L821.25 65.1041 L821.25 64.3749 Q821.25 59.2303 817.847 56.4352 Q814.485 53.5995 808.368 53.5995 Q804.479 53.5995 800.793 54.5312 Q797.107 55.463 793.704 57.3264 L793.704 50.4398 Q797.795 48.86 801.644 48.0903 Q805.492 47.2801 809.138 47.2801 Q818.981 47.2801 823.842 52.3843 Q828.704 57.4884 828.704 67.8587 Z" fill="#000000" fill-rule="evenodd" fill-opacity="1"></path><path clip-path="url(#clip700)" d="M870.347 55.3414 Q869.091 54.6123 867.592 54.2882 Q866.134 53.9236 864.352 53.9236 Q858.032 53.9236 854.629 58.0555 Q851.267 62.1469 851.267 69.8437 L851.267 93.744 L843.773 93.744 L843.773 48.3739 L851.267 48.3739 L851.267 55.4224 Q853.617 51.2905 857.384 49.3056 Q861.151 47.2801 866.539 47.2801 Q867.309 47.2801 868.24 47.4017 Q869.172 47.4827 870.306 47.6852 L870.347 55.3414 Z" fill="#000000" fill-rule="evenodd" fill-opacity="1"></path><path clip-path="url(#clip700)" d="M913.043 39.9885 L913.043 62.7141 L923.333 62.7141 Q929.044 62.7141 932.164 59.7569 Q935.283 56.7998 935.283 51.331 Q935.283 45.9028 932.164 42.9457 Q929.044 39.9885 923.333 39.9885 L913.043 39.9885 M904.861 33.264 L923.333 33.264 Q933.5 33.264 938.686 37.882 Q943.911 42.4596 943.911 51.331 Q943.911 60.2835 938.686 64.8611 Q933.5 69.4386 923.333 69.4386 L913.043 69.4386 L913.043 93.744 L904.861 93.744 L904.861 33.264 Z" fill="#000000" fill-rule="evenodd" fill-opacity="1"></path><path clip-path="url(#clip700)" d="M979.397 55.3414 Q978.141 54.6123 976.643 54.2882 Q975.184 53.9236 973.402 53.9236 Q967.082 53.9236 963.68 58.0555 Q960.317 62.1469 960.317 69.8437 L960.317 93.744 L952.823 93.744 L952.823 48.3739 L960.317 48.3739 L960.317 55.4224 Q962.667 51.2905 966.434 49.3056 Q970.202 47.2801 975.589 47.2801 Q976.359 47.2801 977.291 47.4017 Q978.222 47.4827 979.357 47.6852 L979.397 55.3414 Z" fill="#000000" fill-rule="evenodd" fill-opacity="1"></path><path clip-path="url(#clip700)" d="M1024.2 69.1955 L1024.2 72.8413 L989.93 72.8413 Q990.416 80.5381 994.548 84.589 Q998.72 88.5994 1006.13 88.5994 Q1010.43 88.5994 1014.44 87.5461 Q1018.49 86.4929 1022.46 84.3864 L1022.46 91.435 Q1018.45 93.1364 1014.23 94.0276 Q1010.02 94.9188 1005.69 94.9188 Q994.831 94.9188 988.471 88.5994 Q982.152 82.2799 982.152 71.5045 Q982.152 60.3645 988.147 53.8426 Q994.183 47.2801 1004.39 47.2801 Q1013.55 47.2801 1018.85 53.1944 Q1024.2 59.0683 1024.2 69.1955 M1016.75 67.008 Q1016.67 60.8912 1013.3 57.2454 Q1009.98 53.5995 1004.47 53.5995 Q998.234 53.5995 994.467 57.1238 Q990.74 60.6481 990.173 67.0485 L1016.75 67.008 Z" fill="#000000" fill-rule="evenodd" fill-opacity="1"></path><path clip-path="url(#clip700)" d="M1066.29 55.2604 L1066.29 30.7119 L1073.74 30.7119 L1073.74 93.744 L1066.29 93.744 L1066.29 86.9385 Q1063.94 90.9894 1060.33 92.9743 Q1056.77 94.9188 1051.75 94.9188 Q1043.52 94.9188 1038.34 88.3563 Q1033.19 81.7938 1033.19 71.0994 Q1033.19 60.4051 1038.34 53.8426 Q1043.52 47.2801 1051.75 47.2801 Q1056.77 47.2801 1060.33 49.2651 Q1063.94 51.2095 1066.29 55.2604 M1040.89 71.0994 Q1040.89 79.3228 1044.25 84.0218 Q1047.65 88.6804 1053.57 88.6804 Q1059.48 88.6804 1062.89 84.0218 Q1066.29 79.3228 1066.29 71.0994 Q1066.29 62.8761 1062.89 58.2176 Q1059.48 53.5185 1053.57 53.5185 Q1047.65 53.5185 1044.25 58.2176 Q1040.89 62.8761 1040.89 71.0994 Z" fill="#000000" fill-rule="evenodd" fill-opacity="1"></path><path clip-path="url(#clip700)" d="M1089.1 48.3739 L1096.55 48.3739 L1096.55 93.744 L1089.1 93.744 L1089.1 48.3739 M1089.1 30.7119 L1096.55 30.7119 L1096.55 40.1505 L1089.1 40.1505 L1089.1 30.7119 Z" fill="#000000" fill-rule="evenodd" fill-opacity="1"></path><path clip-path="url(#clip700)" d="M1144.8 50.1158 L1144.8 57.0833 Q1141.64 55.3414 1138.44 54.4907 Q1135.28 53.5995 1132.04 53.5995 Q1124.78 53.5995 1120.77 58.2176 Q1116.76 62.7951 1116.76 71.0994 Q1116.76 79.4038 1120.77 84.0218 Q1124.78 88.5994 1132.04 88.5994 Q1135.28 88.5994 1138.44 87.7487 Q1141.64 86.8575 1144.8 85.1156 L1144.8 92.0021 Q1141.68 93.4604 1138.31 94.1896 Q1134.99 94.9188 1131.23 94.9188 Q1120.98 94.9188 1114.94 88.4778 Q1108.9 82.0369 1108.9 71.0994 Q1108.9 60 1114.98 53.64 Q1121.1 47.2801 1131.71 47.2801 Q1135.15 47.2801 1138.44 48.0093 Q1141.72 48.6979 1144.8 50.1158 Z" fill="#000000" fill-rule="evenodd" fill-opacity="1"></path><path clip-path="url(#clip700)" d="M1165.13 35.492 L1165.13 48.3739 L1180.48 48.3739 L1180.48 54.1667 L1165.13 54.1667 L1165.13 78.7962 Q1165.13 84.3459 1166.63 85.9258 Q1168.17 87.5056 1172.83 87.5056 L1180.48 87.5056 L1180.48 93.744 L1172.83 93.744 Q1164.2 93.744 1160.92 90.5438 Q1157.64 87.3031 1157.64 78.7962 L1157.64 54.1667 L1152.17 54.1667 L1152.17 48.3739 L1157.64 48.3739 L1157.64 35.492 L1165.13 35.492 Z" fill="#000000" fill-rule="evenodd" fill-opacity="1"></path><path clip-path="url(#clip700)" d="M1190.29 48.3739 L1197.74 48.3739 L1197.74 93.744 L1190.29 93.744 L1190.29 48.3739 M1190.29 30.7119 L1197.74 30.7119 L1197.74 40.1505 L1190.29 40.1505 L1190.29 30.7119 Z" fill="#000000" fill-rule="evenodd" fill-opacity="1"></path><path clip-path="url(#clip700)" d="M1230.92 53.5995 Q1224.92 53.5995 1221.44 58.2986 Q1217.95 62.9571 1217.95 71.0994 Q1217.95 79.2418 1221.4 83.9408 Q1224.88 88.5994 1230.92 88.5994 Q1236.87 88.5994 1240.36 83.9003 Q1243.84 79.2013 1243.84 71.0994 Q1243.84 63.0381 1240.36 58.3391 Q1236.87 53.5995 1230.92 53.5995 M1230.92 47.2801 Q1240.64 47.2801 1246.19 53.5995 Q1251.74 59.9189 1251.74 71.0994 Q1251.74 82.2394 1246.19 88.5994 Q1240.64 94.9188 1230.92 94.9188 Q1221.16 94.9188 1215.61 88.5994 Q1210.1 82.2394 1210.1 71.0994 Q1210.1 59.9189 1215.61 53.5995 Q1221.16 47.2801 1230.92 47.2801 Z" fill="#000000" fill-rule="evenodd" fill-opacity="1"></path><path clip-path="url(#clip700)" d="M1301.81 66.3599 L1301.81 93.744 L1294.36 93.744 L1294.36 66.6029 Q1294.36 60.162 1291.84 56.9618 Q1289.33 53.7616 1284.31 53.7616 Q1278.27 53.7616 1274.79 57.6099 Q1271.31 61.4583 1271.31 68.1018 L1271.31 93.744 L1263.81 93.744 L1263.81 48.3739 L1271.31 48.3739 L1271.31 55.4224 Q1273.98 51.331 1277.58 49.3056 Q1281.23 47.2801 1285.97 47.2801 Q1293.79 47.2801 1297.8 52.1412 Q1301.81 56.9618 1301.81 66.3599 Z" fill="#000000" fill-rule="evenodd" fill-opacity="1"></path><path clip-path="url(#clip700)" d="M1360.63 53.5995 Q1354.63 53.5995 1351.15 58.2986 Q1347.66 62.9571 1347.66 71.0994 Q1347.66 79.2418 1351.11 83.9408 Q1354.59 88.5994 1360.63 88.5994 Q1366.58 88.5994 1370.07 83.9003 Q1373.55 79.2013 1373.55 71.0994 Q1373.55 63.0381 1370.07 58.3391 Q1366.58 53.5995 1360.63 53.5995 M1360.63 47.2801 Q1370.35 47.2801 1375.9 53.5995 Q1381.45 59.9189 1381.45 71.0994 Q1381.45 82.2394 1375.9 88.5994 Q1370.35 94.9188 1360.63 94.9188 Q1350.87 94.9188 1345.32 88.5994 Q1339.81 82.2394 1339.81 71.0994 Q1339.81 59.9189 1345.32 53.5995 Q1350.87 47.2801 1360.63 47.2801 Z" fill="#000000" fill-rule="evenodd" fill-opacity="1"></path><path clip-path="url(#clip700)" d="M1416.77 30.7119 L1416.77 36.9098 L1409.64 36.9098 Q1405.63 36.9098 1404.05 38.5302 Q1402.51 40.1505 1402.51 44.3635 L1402.51 48.3739 L1414.79 48.3739 L1414.79 54.1667 L1402.51 54.1667 L1402.51 93.744 L1395.02 93.744 L1395.02 54.1667 L1387.89 54.1667 L1387.89 48.3739 L1395.02 48.3739 L1395.02 45.2142 Q1395.02 37.639 1398.54 34.1957 Q1402.07 30.7119 1409.72 30.7119 L1416.77 30.7119 Z" fill="#000000" fill-rule="evenodd" fill-opacity="1"></path><path clip-path="url(#clip700)" d="M1444.32 33.264 L1452.58 33.264 L1465.3 84.3864 L1477.98 33.264 L1487.18 33.264 L1499.9 84.3864 L1512.58 33.264 L1520.88 33.264 L1505.69 93.744 L1495.4 93.744 L1482.64 41.2443 L1469.76 93.744 L1459.47 93.744 L1444.32 33.264 Z" fill="#000000" fill-rule="evenodd" fill-opacity="1"></path><path clip-path="url(#clip700)" d="M1529.59 48.3739 L1537.04 48.3739 L1537.04 93.744 L1529.59 93.744 L1529.59 48.3739 M1529.59 30.7119 L1537.04 30.7119 L1537.04 40.1505 L1529.59 40.1505 L1529.59 30.7119 Z" fill="#000000" fill-rule="evenodd" fill-opacity="1"></path><path clip-path="url(#clip700)" d="M1590.35 66.3599 L1590.35 93.744 L1582.9 93.744 L1582.9 66.6029 Q1582.9 60.162 1580.39 56.9618 Q1577.88 53.7616 1572.85 53.7616 Q1566.82 53.7616 1563.34 57.6099 Q1559.85 61.4583 1559.85 68.1018 L1559.85 93.744 L1552.36 93.744 L1552.36 48.3739 L1559.85 48.3739 L1559.85 55.4224 Q1562.52 51.331 1566.13 49.3056 Q1569.78 47.2801 1574.52 47.2801 Q1582.33 47.2801 1586.34 52.1412 Q1590.35 56.9618 1590.35 66.3599 Z" fill="#000000" fill-rule="evenodd" fill-opacity="1"></path><path clip-path="url(#clip700)" d="M1642.94 66.3599 L1642.94 93.744 L1635.48 93.744 L1635.48 66.6029 Q1635.48 60.162 1632.97 56.9618 Q1630.46 53.7616 1625.44 53.7616 Q1619.4 53.7616 1615.92 57.6099 Q1612.43 61.4583 1612.43 68.1018 L1612.43 93.744 L1604.94 93.744 L1604.94 48.3739 L1612.43 48.3739 L1612.43 55.4224 Q1615.11 51.331 1618.71 49.3056 Q1622.36 47.2801 1627.1 47.2801 Q1634.91 47.2801 1638.92 52.1412 Q1642.94 56.9618 1642.94 66.3599 Z" fill="#000000" fill-rule="evenodd" fill-opacity="1"></path><path clip-path="url(#clip700)" d="M1657.8 48.3739 L1665.26 48.3739 L1665.26 93.744 L1657.8 93.744 L1657.8 48.3739 M1657.8 30.7119 L1665.26 30.7119 L1665.26 40.1505 L1657.8 40.1505 L1657.8 30.7119 Z" fill="#000000" fill-rule="evenodd" fill-opacity="1"></path><path clip-path="url(#clip700)" d="M1718.57 66.3599 L1718.57 93.744 L1711.11 93.744 L1711.11 66.6029 Q1711.11 60.162 1708.6 56.9618 Q1706.09 53.7616 1701.07 53.7616 Q1695.03 53.7616 1691.55 57.6099 Q1688.06 61.4583 1688.06 68.1018 L1688.06 93.744 L1680.57 93.744 L1680.57 48.3739 L1688.06 48.3739 L1688.06 55.4224 Q1690.74 51.331 1694.34 49.3056 Q1697.99 47.2801 1702.73 47.2801 Q1710.54 47.2801 1714.56 52.1412 Q1718.57 56.9618 1718.57 66.3599 Z" fill="#000000" fill-rule="evenodd" fill-opacity="1"></path><path clip-path="url(#clip700)" d="M1763.29 70.5323 Q1763.29 62.4305 1759.93 57.9745 Q1756.6 53.5185 1750.57 53.5185 Q1744.57 53.5185 1741.21 57.9745 Q1737.89 62.4305 1737.89 70.5323 Q1737.89 78.5936 1741.21 83.0496 Q1744.57 87.5056 1750.57 87.5056 Q1756.6 87.5056 1759.93 83.0496 Q1763.29 78.5936 1763.29 70.5323 M1770.74 88.1132 Q1770.74 99.6988 1765.6 105.33 Q1760.45 111.001 1749.84 111.001 Q1745.91 111.001 1742.43 110.393 Q1738.94 109.826 1735.66 108.611 L1735.66 101.36 Q1738.94 103.142 1742.14 103.993 Q1745.34 104.843 1748.66 104.843 Q1756 104.843 1759.64 100.995 Q1763.29 97.1873 1763.29 89.45 L1763.29 85.7637 Q1760.98 89.7741 1757.37 91.7591 Q1753.77 93.744 1748.74 93.744 Q1740.4 93.744 1735.3 87.3841 Q1730.19 81.0242 1730.19 70.5323 Q1730.19 60 1735.3 53.64 Q1740.4 47.2801 1748.74 47.2801 Q1753.77 47.2801 1757.37 49.2651 Q1760.98 51.25 1763.29 55.2604 L1763.29 48.3739 L1770.74 48.3739 L1770.74 88.1132 Z" fill="#000000" fill-rule="evenodd" fill-opacity="1"></path><path clip-path="url(#clip700)" d="M1814.94 86.8575 L1828.3 86.8575 L1828.3 40.7177 L1813.76 43.6343 L1813.76 36.1807 L1828.22 33.264 L1836.41 33.264 L1836.41 86.8575 L1849.77 86.8575 L1849.77 93.744 L1814.94 93.744 L1814.94 86.8575 Z" fill="#000000" fill-rule="evenodd" fill-opacity="1"></path><path clip-path="url(#clip700)" d="M1883.8 38.6517 Q1877.48 38.6517 1874.28 44.8901 Q1871.12 51.088 1871.12 63.5648 Q1871.12 76.001 1874.28 82.2394 Q1877.48 88.4373 1883.8 88.4373 Q1890.16 88.4373 1893.32 82.2394 Q1896.52 76.001 1896.52 63.5648 Q1896.52 51.088 1893.32 44.8901 Q1890.16 38.6517 1883.8 38.6517 M1883.8 32.1703 Q1893.97 32.1703 1899.32 40.2316 Q1904.7 48.2523 1904.7 63.5648 Q1904.7 78.8367 1899.32 86.898 Q1893.97 94.9188 1883.8 94.9188 Q1873.63 94.9188 1868.25 86.898 Q1862.9 78.8367 1862.9 63.5648 Q1862.9 48.2523 1868.25 40.2316 Q1873.63 32.1703 1883.8 32.1703 Z" fill="#000000" fill-rule="evenodd" fill-opacity="1"></path><path clip-path="url(#clip700)" d="M1936.59 38.6517 Q1930.27 38.6517 1927.07 44.8901 Q1923.91 51.088 1923.91 63.5648 Q1923.91 76.001 1927.07 82.2394 Q1930.27 88.4373 1936.59 88.4373 Q1942.95 88.4373 1946.11 82.2394 Q1949.31 76.001 1949.31 63.5648 Q1949.31 51.088 1946.11 44.8901 Q1942.95 38.6517 1936.59 38.6517 M1936.59 32.1703 Q1946.75 32.1703 1952.1 40.2316 Q1957.49 48.2523 1957.49 63.5648 Q1957.49 78.8367 1952.1 86.898 Q1946.75 94.9188 1936.59 94.9188 Q1926.42 94.9188 1921.03 86.898 Q1915.68 78.8367 1915.68 63.5648 Q1915.68 48.2523 1921.03 40.2316 Q1926.42 32.1703 1936.59 32.1703 Z" fill="#000000" fill-rule="evenodd" fill-opacity="1"></path><path clip-path="url(#clip700)" d="M2006.14 57.0833 Q2008.93 52.0602 2012.82 49.6702 Q2016.71 47.2801 2021.98 47.2801 Q2029.07 47.2801 2032.92 52.2627 Q2036.76 57.2048 2036.76 66.3599 L2036.76 93.744 L2029.27 93.744 L2029.27 66.6029 Q2029.27 60.081 2026.96 56.9213 Q2024.65 53.7616 2019.91 53.7616 Q2014.12 53.7616 2010.76 57.6099 Q2007.4 61.4583 2007.4 68.1018 L2007.4 93.744 L1999.9 93.744 L1999.9 66.6029 Q1999.9 60.0405 1997.59 56.9213 Q1995.28 53.7616 1990.46 53.7616 Q1984.75 53.7616 1981.39 57.6504 Q1978.03 61.4988 1978.03 68.1018 L1978.03 93.744 L1970.53 93.744 L1970.53 48.3739 L1978.03 48.3739 L1978.03 55.4224 Q1980.58 51.25 1984.14 49.2651 Q1987.71 47.2801 1992.61 47.2801 Q1997.55 47.2801 2000.99 49.7917 Q2004.48 52.3032 2006.14 57.0833 Z" fill="#000000" fill-rule="evenodd" fill-opacity="1"></path><path clip-path="url(#clip700)" d="M944.478 129.534 Q935.566 129.534 930.3 136.177 Q925.075 142.821 925.075 154.285 Q925.075 165.708 930.3 172.352 Q935.566 178.995 944.478 178.995 Q953.39 178.995 958.576 172.352 Q963.801 165.708 963.801 154.285 Q963.801 142.821 958.576 136.177 Q953.39 129.534 944.478 129.534 M944.478 122.89 Q957.198 122.89 964.814 131.438 Q972.43 139.945 972.43 154.285 Q972.43 168.584 964.814 177.132 Q957.198 185.639 944.478 185.639 Q931.718 185.639 924.062 177.132 Q916.446 168.625 916.446 154.285 Q916.446 139.945 924.062 131.438 Q931.718 122.89 944.478 122.89 Z" fill="#000000" fill-rule="evenodd" fill-opacity="1"></path><path clip-path="url(#clip700)" d="M984.906 121.432 L992.36 121.432 L992.36 184.464 L984.906 184.464 L984.906 121.432 Z" fill="#000000" fill-rule="evenodd" fill-opacity="1"></path><path clip-path="url(#clip700)" d="M1026.83 188.677 Q1023.67 196.779 1020.68 199.25 Q1017.68 201.721 1012.66 201.721 L1006.7 201.721 L1006.7 195.482 L1011.08 195.482 Q1014.15 195.482 1015.86 194.024 Q1017.56 192.566 1019.62 187.138 L1020.96 183.735 L1002.61 139.094 L1010.51 139.094 L1024.69 174.58 L1038.86 139.094 L1046.76 139.094 L1026.83 188.677 Z" fill="#000000" fill-rule="evenodd" fill-opacity="1"></path><path clip-path="url(#clip700)" d="M1092.38 147.803 Q1095.17 142.78 1099.06 140.39 Q1102.95 138 1108.22 138 Q1115.31 138 1119.15 142.983 Q1123 147.925 1123 157.08 L1123 184.464 L1115.51 184.464 L1115.51 157.323 Q1115.51 150.801 1113.2 147.641 Q1110.89 144.482 1106.15 144.482 Q1100.36 144.482 1096.99 148.33 Q1093.63 152.178 1093.63 158.822 L1093.63 184.464 L1086.14 184.464 L1086.14 157.323 Q1086.14 150.76 1083.83 147.641 Q1081.52 144.482 1076.7 144.482 Q1070.99 144.482 1067.63 148.37 Q1064.26 152.219 1064.26 158.822 L1064.26 184.464 L1056.77 184.464 L1056.77 139.094 L1064.26 139.094 L1064.26 146.142 Q1066.82 141.97 1070.38 139.985 Q1073.95 138 1078.85 138 Q1083.79 138 1087.23 140.512 Q1090.72 143.023 1092.38 147.803 Z" fill="#000000" fill-rule="evenodd" fill-opacity="1"></path><path clip-path="url(#clip700)" d="M1145.08 177.658 L1145.08 201.721 L1137.59 201.721 L1137.59 139.094 L1145.08 139.094 L1145.08 145.98 Q1147.43 141.93 1150.99 139.985 Q1154.6 138 1159.58 138 Q1167.85 138 1172.99 144.563 Q1178.18 151.125 1178.18 161.819 Q1178.18 172.514 1172.99 179.076 Q1167.85 185.639 1159.58 185.639 Q1154.6 185.639 1150.99 183.694 Q1147.43 181.709 1145.08 177.658 M1170.44 161.819 Q1170.44 153.596 1167.04 148.938 Q1163.67 144.239 1157.76 144.239 Q1151.84 144.239 1148.44 148.938 Q1145.08 153.596 1145.08 161.819 Q1145.08 170.043 1148.44 174.742 Q1151.84 179.4 1157.76 179.4 Q1163.67 179.4 1167.04 174.742 Q1170.44 170.043 1170.44 161.819 Z" fill="#000000" fill-rule="evenodd" fill-opacity="1"></path><path clip-path="url(#clip700)" d="M1190.53 139.094 L1197.98 139.094 L1197.98 184.464 L1190.53 184.464 L1190.53 139.094 M1190.53 121.432 L1197.98 121.432 L1197.98 130.871 L1190.53 130.871 L1190.53 121.432 Z" fill="#000000" fill-rule="evenodd" fill-opacity="1"></path><path clip-path="url(#clip700)" d="M1246.23 140.836 L1246.23 147.803 Q1243.07 146.061 1239.87 145.211 Q1236.71 144.32 1233.47 144.32 Q1226.22 144.32 1222.21 148.938 Q1218.2 153.515 1218.2 161.819 Q1218.2 170.124 1222.21 174.742 Q1226.22 179.319 1233.47 179.319 Q1236.71 179.319 1239.87 178.469 Q1243.07 177.577 1246.23 175.836 L1246.23 182.722 Q1243.11 184.18 1239.75 184.91 Q1236.43 185.639 1232.66 185.639 Q1222.41 185.639 1216.38 179.198 Q1210.34 172.757 1210.34 161.819 Q1210.34 150.72 1216.42 144.36 Q1222.53 138 1233.15 138 Q1236.59 138 1239.87 138.729 Q1243.15 139.418 1246.23 140.836 Z" fill="#000000" fill-rule="evenodd" fill-opacity="1"></path><path clip-path="url(#clip700)" d="M1322.14 125.969 L1322.14 133.949 Q1317.49 131.721 1313.35 130.627 Q1309.22 129.534 1305.37 129.534 Q1298.69 129.534 1295.04 132.126 Q1291.44 134.719 1291.44 139.499 Q1291.44 143.509 1293.83 145.575 Q1296.26 147.601 1302.98 148.857 L1307.93 149.869 Q1317.08 151.611 1321.42 156.027 Q1325.79 160.402 1325.79 167.774 Q1325.79 176.565 1319.88 181.102 Q1314 185.639 1302.62 185.639 Q1298.32 185.639 1293.46 184.667 Q1288.64 183.694 1283.46 181.79 L1283.46 173.365 Q1288.44 176.16 1293.22 177.577 Q1298 178.995 1302.62 178.995 Q1309.63 178.995 1313.43 176.241 Q1317.24 173.486 1317.24 168.382 Q1317.24 163.926 1314.49 161.414 Q1311.77 158.903 1305.54 157.647 L1300.55 156.675 Q1291.4 154.852 1287.31 150.963 Q1283.22 147.074 1283.22 140.147 Q1283.22 132.126 1288.85 127.508 Q1294.52 122.89 1304.44 122.89 Q1308.7 122.89 1313.11 123.66 Q1317.53 124.43 1322.14 125.969 Z" fill="#000000" fill-rule="evenodd" fill-opacity="1"></path><path clip-path="url(#clip700)" d="M1345.44 177.658 L1345.44 201.721 L1337.94 201.721 L1337.94 139.094 L1345.44 139.094 L1345.44 145.98 Q1347.79 141.93 1351.35 139.985 Q1354.96 138 1359.94 138 Q1368.2 138 1373.35 144.563 Q1378.53 151.125 1378.53 161.819 Q1378.53 172.514 1373.35 179.076 Q1368.2 185.639 1359.94 185.639 Q1354.96 185.639 1351.35 183.694 Q1347.79 181.709 1345.44 177.658 M1370.8 161.819 Q1370.8 153.596 1367.39 148.938 Q1364.03 144.239 1358.12 144.239 Q1352.2 144.239 1348.8 148.938 Q1345.44 153.596 1345.44 161.819 Q1345.44 170.043 1348.8 174.742 Q1352.2 179.4 1358.12 179.4 Q1364.03 179.4 1367.39 174.742 Q1370.8 170.043 1370.8 161.819 Z" fill="#000000" fill-rule="evenodd" fill-opacity="1"></path><path clip-path="url(#clip700)" d="M1417.18 146.061 Q1415.92 145.332 1414.42 145.008 Q1412.97 144.644 1411.18 144.644 Q1404.86 144.644 1401.46 148.776 Q1398.1 152.867 1398.1 160.564 L1398.1 184.464 L1390.6 184.464 L1390.6 139.094 L1398.1 139.094 L1398.1 146.142 Q1400.45 142.011 1404.22 140.026 Q1407.98 138 1413.37 138 Q1414.14 138 1415.07 138.122 Q1416 138.203 1417.14 138.405 L1417.18 146.061 Z" fill="#000000" fill-rule="evenodd" fill-opacity="1"></path><path clip-path="url(#clip700)" d="M1425 139.094 L1432.45 139.094 L1432.45 184.464 L1425 184.464 L1425 139.094 M1425 121.432 L1432.45 121.432 L1432.45 130.871 L1425 130.871 L1425 121.432 Z" fill="#000000" fill-rule="evenodd" fill-opacity="1"></path><path clip-path="url(#clip700)" d="M1485.76 157.08 L1485.76 184.464 L1478.31 184.464 L1478.31 157.323 Q1478.31 150.882 1475.8 147.682 Q1473.28 144.482 1468.26 144.482 Q1462.22 144.482 1458.74 148.33 Q1455.26 152.178 1455.26 158.822 L1455.26 184.464 L1447.76 184.464 L1447.76 139.094 L1455.26 139.094 L1455.26 146.142 Q1457.93 142.051 1461.54 140.026 Q1465.18 138 1469.92 138 Q1477.74 138 1481.75 142.861 Q1485.76 147.682 1485.76 157.08 Z" fill="#000000" fill-rule="evenodd" fill-opacity="1"></path><path clip-path="url(#clip700)" d="M1508 126.212 L1508 139.094 L1523.35 139.094 L1523.35 144.887 L1508 144.887 L1508 169.516 Q1508 175.066 1509.5 176.646 Q1511.04 178.226 1515.7 178.226 L1523.35 178.226 L1523.35 184.464 L1515.7 184.464 Q1507.07 184.464 1503.79 181.264 Q1500.51 178.023 1500.51 169.516 L1500.51 144.887 L1495.04 144.887 L1495.04 139.094 L1500.51 139.094 L1500.51 126.212 L1508 126.212 Z" fill="#000000" fill-rule="evenodd" fill-opacity="1"></path><path clip-path="url(#clip700)" d="M1551.47 123.984 L1602.63 123.984 L1602.63 130.871 L1581.16 130.871 L1581.16 184.464 L1572.94 184.464 L1572.94 130.871 L1551.47 130.871 L1551.47 123.984 Z" fill="#000000" fill-rule="evenodd" fill-opacity="1"></path><path clip-path="url(#clip700)" d="M1607.65 139.094 L1615.11 139.094 L1615.11 184.464 L1607.65 184.464 L1607.65 139.094 M1607.65 121.432 L1615.11 121.432 L1615.11 130.871 L1607.65 130.871 L1607.65 121.432 Z" fill="#000000" fill-rule="evenodd" fill-opacity="1"></path><path clip-path="url(#clip700)" d="M1666.03 147.803 Q1668.82 142.78 1672.71 140.39 Q1676.6 138 1681.86 138 Q1688.95 138 1692.8 142.983 Q1696.65 147.925 1696.65 157.08 L1696.65 184.464 L1689.16 184.464 L1689.16 157.323 Q1689.16 150.801 1686.85 147.641 Q1684.54 144.482 1679.8 144.482 Q1674.01 144.482 1670.64 148.33 Q1667.28 152.178 1667.28 158.822 L1667.28 184.464 L1659.79 184.464 L1659.79 157.323 Q1659.79 150.76 1657.48 147.641 Q1655.17 144.482 1650.35 144.482 Q1644.64 144.482 1641.27 148.37 Q1637.91 152.219 1637.91 158.822 L1637.91 184.464 L1630.42 184.464 L1630.42 139.094 L1637.91 139.094 L1637.91 146.142 Q1640.46 141.97 1644.03 139.985 Q1647.59 138 1652.5 138 Q1657.44 138 1660.88 140.512 Q1664.36 143.023 1666.03 147.803 Z" fill="#000000" fill-rule="evenodd" fill-opacity="1"></path><path clip-path="url(#clip700)" d="M1750.32 159.916 L1750.32 163.561 L1716.05 163.561 Q1716.54 171.258 1720.67 175.309 Q1724.84 179.319 1732.26 179.319 Q1736.55 179.319 1740.56 178.266 Q1744.61 177.213 1748.58 175.106 L1748.58 182.155 Q1744.57 183.856 1740.36 184.748 Q1736.15 185.639 1731.81 185.639 Q1720.96 185.639 1714.6 179.319 Q1708.28 173 1708.28 162.225 Q1708.28 151.085 1714.27 144.563 Q1720.31 138 1730.52 138 Q1739.67 138 1744.98 143.914 Q1750.32 149.788 1750.32 159.916 M1742.87 157.728 Q1742.79 151.611 1739.43 147.965 Q1736.11 144.32 1730.6 144.32 Q1724.36 144.32 1720.59 147.844 Q1716.86 151.368 1716.3 157.769 L1742.87 157.728 Z" fill="#000000" fill-rule="evenodd" fill-opacity="1"></path><path clip-path="url(#clip700)" d="M1791.48 140.431 L1791.48 147.479 Q1788.32 145.859 1784.92 145.049 Q1781.52 144.239 1777.87 144.239 Q1772.32 144.239 1769.53 145.94 Q1766.77 147.641 1766.77 151.044 Q1766.77 153.637 1768.76 155.135 Q1770.74 156.594 1776.74 157.931 L1779.29 158.498 Q1787.23 160.199 1790.55 163.318 Q1793.91 166.397 1793.91 171.947 Q1793.91 178.266 1788.89 181.952 Q1783.91 185.639 1775.16 185.639 Q1771.51 185.639 1767.54 184.91 Q1763.61 184.221 1759.24 182.803 L1759.24 175.106 Q1763.37 177.253 1767.38 178.347 Q1771.39 179.4 1775.32 179.4 Q1780.59 179.4 1783.42 177.618 Q1786.26 175.795 1786.26 172.514 Q1786.26 169.476 1784.19 167.855 Q1782.16 166.235 1775.24 164.736 L1772.65 164.128 Q1765.72 162.67 1762.64 159.672 Q1759.56 156.634 1759.56 151.368 Q1759.56 144.968 1764.1 141.484 Q1768.63 138 1776.98 138 Q1781.11 138 1784.76 138.608 Q1788.4 139.215 1791.48 140.431 Z" fill="#000000" fill-rule="evenodd" fill-opacity="1"></path><polyline clip-path="url(#clip702)" style="stroke:#009af9; stroke-linecap:round; stroke-linejoin:round; stroke-width:4; stroke-opacity:1; fill:none" points="
  307.043,219.025 329.111,232.014 351.179,245.004 373.247,257.994 395.315,270.984 417.383,283.974 439.451,296.963 461.519,309.953 483.587,322.943 505.656,335.933 
  527.724,348.923 549.792,361.913 571.86,374.902 593.928,387.892 615.996,400.882 638.064,413.872 660.132,426.862 682.2,439.851 704.268,452.841 726.337,465.831 
  748.405,478.821 770.473,491.811 792.541,504.8 814.609,517.79 836.677,530.78 858.745,543.77 880.813,556.76 902.881,569.749 924.95,582.739 947.018,595.729 
  969.086,608.719 991.154,621.709 1013.22,634.698 1035.29,647.688 1057.36,660.678 1079.43,673.668 1101.49,686.658 1123.56,699.648 1145.63,712.637 1167.7,725.627 
  1189.77,738.617 1211.83,751.607 1233.9,764.597 1255.97,777.586 1278.04,790.576 1300.11,803.566 1322.18,816.556 1344.24,829.546 1366.31,842.535 1388.38,855.525 
  1410.45,868.515 1432.52,881.505 1454.58,894.495 1476.65,907.484 1498.72,920.474 1520.79,933.464 1542.86,946.454 1564.92,959.444 1586.99,972.433 1609.06,985.423 
  1631.13,998.413 1653.2,1011.4 1675.27,1024.39 1697.33,1037.38 1719.4,1050.37 1741.47,1063.36 1763.54,1076.35 1785.61,1089.34 1807.67,1102.33 1829.74,1115.32 
  1851.81,1128.31 1873.88,1141.3 1895.95,1154.29 1918.01,1167.28 1940.08,1180.27 1962.15,1193.26 1984.22,1206.25 2006.29,1219.24 2028.35,1232.23 2050.42,1245.22 
  2072.49,1258.21 2094.56,1271.2 2116.63,1284.19 2138.7,1297.18 2160.76,1310.17 2182.83,1323.16 2204.9,1336.15 2226.97,1349.14 2249.04,1362.13 2271.1,1375.12 
  2293.17,1388.11 
  "></polyline>
<circle clip-path="url(#clip702)" cx="2160.76" cy="1310.17" r="14.4" fill="#e26f46" fill-rule="evenodd" fill-opacity="1" stroke="#000000" stroke-opacity="1" stroke-width="3.2"></circle>
<path clip-path="url(#clip700)" d="M1701.71 1333.52 L1730.27 1333.52 L1730.27 1340.41 L1691.87 1340.41 L1691.87 1333.52 Q1696.53 1328.7 1704.55 1320.6 Q1712.61 1312.46 1714.68 1310.11 Q1718.61 1305.69 1720.15 1302.65 Q1721.73 1299.58 1721.73 1296.62 Q1721.73 1291.8 1718.32 1288.76 Q1714.96 1285.72 1709.53 1285.72 Q1705.68 1285.72 1701.39 1287.06 Q1697.14 1288.39 1692.28 1291.11 L1692.28 1282.85 Q1697.22 1280.86 1701.51 1279.85 Q1705.81 1278.83 1709.37 1278.83 Q1718.77 1278.83 1724.36 1283.53 Q1729.95 1288.23 1729.95 1296.09 Q1729.95 1299.82 1728.53 1303.18 Q1727.15 1306.5 1723.47 1311.04 Q1722.46 1312.21 1717.03 1317.84 Q1711.6 1323.44 1701.71 1333.52 Z" fill="#000000" fill-rule="evenodd" fill-opacity="1"></path><path clip-path="url(#clip700)" d="M1764.95 1285.32 Q1758.63 1285.32 1755.43 1291.55 Q1752.27 1297.75 1752.27 1310.23 Q1752.27 1322.67 1755.43 1328.9 Q1758.63 1335.1 1764.95 1335.1 Q1771.31 1335.1 1774.47 1328.9 Q1777.67 1322.67 1777.67 1310.23 Q1777.67 1297.75 1774.47 1291.55 Q1771.31 1285.32 1764.95 1285.32 M1764.95 1278.83 Q1775.12 1278.83 1780.46 1286.9 Q1785.85 1294.92 1785.85 1310.23 Q1785.85 1325.5 1780.46 1333.56 Q1775.12 1341.58 1764.95 1341.58 Q1754.78 1341.58 1749.39 1333.56 Q1744.05 1325.5 1744.05 1310.23 Q1744.05 1294.92 1749.39 1286.9 Q1754.78 1278.83 1764.95 1278.83 Z" fill="#000000" fill-rule="evenodd" fill-opacity="1"></path><path clip-path="url(#clip700)" d="M1807.28 1333.52 L1835.84 1333.52 L1835.84 1340.41 L1797.44 1340.41 L1797.44 1333.52 Q1802.1 1328.7 1810.12 1320.6 Q1818.18 1312.46 1820.24 1310.11 Q1824.17 1305.69 1825.71 1302.65 Q1827.29 1299.58 1827.29 1296.62 Q1827.29 1291.8 1823.89 1288.76 Q1820.53 1285.72 1815.1 1285.72 Q1811.25 1285.72 1806.96 1287.06 Q1802.7 1288.39 1797.84 1291.11 L1797.84 1282.85 Q1802.78 1280.86 1807.08 1279.85 Q1811.37 1278.83 1814.94 1278.83 Q1824.34 1278.83 1829.93 1283.53 Q1835.52 1288.23 1835.52 1296.09 Q1835.52 1299.82 1834.1 1303.18 Q1832.72 1306.5 1829.03 1311.04 Q1828.02 1312.21 1822.59 1317.84 Q1817.17 1323.44 1807.28 1333.52 Z" fill="#000000" fill-rule="evenodd" fill-opacity="1"></path><path clip-path="url(#clip700)" d="M1875.5 1287.06 L1854.84 1319.34 L1875.5 1319.34 L1875.5 1287.06 M1873.35 1279.93 L1883.64 1279.93 L1883.64 1319.34 L1892.27 1319.34 L1892.27 1326.15 L1883.64 1326.15 L1883.64 1340.41 L1875.5 1340.41 L1875.5 1326.15 L1848.2 1326.15 L1848.2 1318.25 L1873.35 1279.93 Z" fill="#000000" fill-rule="evenodd" fill-opacity="1"></path><path clip-path="url(#clip700)" d="M1906.65 1330.12 L1915.2 1330.12 L1915.2 1337.09 L1908.55 1350.05 L1903.33 1350.05 L1906.65 1337.09 L1906.65 1330.12 Z" fill="#000000" fill-rule="evenodd" fill-opacity="1"></path><path clip-path="url(#clip700)" d="M1958.79 1339.15 L1958.79 1331.7 Q1961.86 1333.16 1965.02 1333.93 Q1968.18 1334.7 1971.22 1334.7 Q1979.32 1334.7 1983.58 1329.27 Q1987.87 1323.8 1988.48 1312.7 Q1986.13 1316.18 1982.52 1318.05 Q1978.92 1319.91 1974.54 1319.91 Q1965.47 1319.91 1960.16 1314.44 Q1954.9 1308.93 1954.9 1299.41 Q1954.9 1290.1 1960.41 1284.47 Q1965.91 1278.83 1975.07 1278.83 Q1985.56 1278.83 1991.07 1286.9 Q1996.62 1294.92 1996.62 1310.23 Q1996.62 1324.53 1989.82 1333.08 Q1983.05 1341.58 1971.59 1341.58 Q1968.51 1341.58 1965.35 1340.98 Q1962.19 1340.37 1958.79 1339.15 M1975.07 1313.51 Q1980.58 1313.51 1983.78 1309.74 Q1987.02 1305.98 1987.02 1299.41 Q1987.02 1292.89 1983.78 1289.12 Q1980.58 1285.32 1975.07 1285.32 Q1969.56 1285.32 1966.32 1289.12 Q1963.12 1292.89 1963.12 1299.41 Q1963.12 1305.98 1966.32 1309.74 Q1969.56 1313.51 1975.07 1313.51 Z" fill="#000000" fill-rule="evenodd" fill-opacity="1"></path><path clip-path="url(#clip700)" d="M2011.33 1330.12 L2019.87 1330.12 L2019.87 1340.41 L2011.33 1340.41 L2011.33 1330.12 Z" fill="#000000" fill-rule="evenodd" fill-opacity="1"></path><path clip-path="url(#clip700)" d="M2056.21 1306.91 Q2050.7 1306.91 2047.46 1310.67 Q2044.26 1314.44 2044.26 1321 Q2044.26 1327.53 2047.46 1331.33 Q2050.7 1335.1 2056.21 1335.1 Q2061.72 1335.1 2064.92 1331.33 Q2068.16 1327.53 2068.16 1321 Q2068.16 1314.44 2064.92 1310.67 Q2061.72 1306.91 2056.21 1306.91 M2072.45 1281.27 L2072.45 1288.72 Q2069.37 1287.26 2066.22 1286.49 Q2063.1 1285.72 2060.02 1285.72 Q2051.92 1285.72 2047.62 1291.19 Q2043.37 1296.66 2042.76 1307.72 Q2045.15 1304.19 2048.76 1302.33 Q2052.36 1300.43 2056.7 1300.43 Q2065.81 1300.43 2071.08 1305.98 Q2076.38 1311.49 2076.38 1321 Q2076.38 1330.32 2070.87 1335.95 Q2065.36 1341.58 2056.21 1341.58 Q2045.72 1341.58 2040.17 1333.56 Q2034.62 1325.5 2034.62 1310.23 Q2034.62 1295.89 2041.42 1287.38 Q2048.23 1278.83 2059.69 1278.83 Q2062.77 1278.83 2065.89 1279.44 Q2069.05 1280.05 2072.45 1281.27 Z" fill="#000000" fill-rule="evenodd" fill-opacity="1"></path><path clip-path="url(#clip700)" d="M2091.9 1333.52 L2105.27 1333.52 L2105.27 1287.38 L2090.72 1290.3 L2090.72 1282.85 L2105.18 1279.93 L2113.37 1279.93 L2113.37 1333.52 L2126.74 1333.52 L2126.74 1340.41 L2091.9 1340.41 L2091.9 1333.52 Z" fill="#000000" fill-rule="evenodd" fill-opacity="1"></path></svg>